<?xml version="1.0" encoding="utf-8"?>
<!-- Generator: Adobe Illustrator 26.0.1, SVG Export Plug-In . SVG Version: 6.00 Build 0)  -->
<svg version="1.1" id="Layer_1" xmlns="http://www.w3.org/2000/svg" xmlns:xlink="http://www.w3.org/1999/xlink" x="0px" y="0px"
	 viewBox="0 0 745.9 101.3" style="enable-background:new 0 0 745.9 101.3;" xml:space="preserve">
<style type="text/css">
	.st0{fill:#FECC3A;}
	.st1{fill:#FFFFFF;}
</style>
<g>
	<path class="st0" d="M68.9,45.3h7v29.1c-6.5,6.4-15.8,9.7-25.4,9.7C29.4,84.1,14,67.6,14,45.3C14,23,29.4,6.5,50.6,6.5
		c10.5,0,19.6,3.7,25.7,11l-4.6,5.1c-5.8-6.3-12.8-8.9-20.9-8.9c-17.1,0-29.7,13.4-29.7,31.6c0,18.1,12.6,31.6,29.6,31.6
		c6.6,0,12.8-1.6,18.1-5.9V45.3z"/>
	<path class="st0" d="M91.1,50.9V7.2h7.3v43.3c0,18.1,7.7,26.4,21.2,26.4c13.6,0,21.3-8.3,21.3-26.4V7.2h7.1v43.7
		c0,21.9-10.7,33.2-28.4,33.2S91.1,72.8,91.1,50.9z"/>
	<path class="st0" d="M165.1,7.2h7.3v69.3h38.8v7h-46.1V7.2z"/>
	<path class="st0" d="M225.8,14.2v29.9h35.8v7h-35.8v32.3h-7.3V7.2H266v7H225.8z"/>
	<path class="st0" d="M269.2,45.3c0-22.2,15.4-38.8,36.4-38.8c20.8,0,36.3,16.4,36.3,38.8c0,22.3-15.5,38.8-36.3,38.8
		C284.6,84.1,269.2,67.5,269.2,45.3z M334.6,45.3c0-18.2-12.4-31.6-29-31.6c-16.7,0-29.2,13.4-29.2,31.6c0,18.2,12.5,31.6,29.2,31.6
		C322.2,76.9,334.6,63.5,334.6,45.3z"/>
	<g>
		<path class="st1" d="M368.5,44.9h9.5v38.6h-8.7v-5.1c-5.1,4-11.8,6-19.3,6c-18.5,0-35.1-13.7-35.1-38.7
			c0-22.9,15.6-39.3,37.1-39.3c11,0,20.3,4,26.6,11.8l-6.1,6.8c-5.7-6.1-12.3-8.8-20.1-8.8c-16,0-27.6,12.3-27.6,29.6
			c0,18.8,12.6,29.2,26,29.2c6.3,0,12.8-2.3,17.7-7.1V44.9z"/>
		<path class="st1" d="M438.3,83.4L423.4,60c-1.4,0.1-2.9,0.2-4.4,0.2h-17.1v23.2H392V7.2h27c18,0,28.9,10,28.9,26.6
			c0,11.8-5.5,20.3-15.2,24.1l16.4,25.6H438.3z M438,33.8c0-10.9-6.6-17.1-19.3-17.1h-16.8V51h16.8C431.4,51,438,44.7,438,33.8z"/>
		<path class="st1" d="M518,40.6v42.8h-9.9v-21h-40v21h-9.7V40.6c0-22.5,11.9-34.3,29.7-34.3C506.1,6.3,518,18.1,518,40.6z
			 M508.1,52.9V39.7c0-15.9-7.7-23.6-20-23.6c-12.3,0-20,7.7-20,23.6v13.3H508.1z"/>
		<path class="st1" d="M589.2,33.8c0,16.6-10.9,26.6-28.9,26.6h-17.1v23.1h-9.9V7.2h27C578.3,7.2,589.2,17.2,589.2,33.8z
			 M579.3,33.8c0-10.9-6.6-17.1-19.3-17.1h-16.8v34.2H560C572.7,50.9,579.3,44.7,579.3,33.8z"/>
		<path class="st1" d="M658.4,7.2v76.2h-9.9v-34h-39.8v34h-9.9V7.2h9.9V40h39.8V7.2H658.4z"/>
		<path class="st1" d="M731.9,7.2v53.6c0,22.4-11.6,34.2-30.2,34.2c-11.6,0-21-4.1-27.2-11.1l4.3-8.5c6,6.5,13.7,9.8,23,9.8
			c13.2,0,20.4-7.6,20.4-24v-7.7c-4.9,7.7-12.3,11.1-21.5,11.1c-17.2,0-27.5-11.2-27.5-31.9V7.2h9.9v25c0,15.1,7.2,22.7,18.7,22.7
			c12.2,0,20.4-7.7,20.4-24.3V7.2H731.9z"/>
	</g>
	<path class="st0" d="M334.6,47.3c-0.8,17.2-12.9,29.6-29,29.6c-16.1,0-28.3-12.4-29.2-29.6h-7.2c0.9,21.2,16,36.8,36.4,36.8
		c20.2,0,35.4-15.5,36.3-36.8H334.6z"/>
</g>
</svg>
